<svg xmlns="http://www.w3.org/2000/svg" xmlns:xlink="http://www.w3.org/1999/xlink" version="1.1" width="841.89pt" height="952.157pt" viewBox="0 0 841.89 952.157">
<defs>
<clipPath id="clip_0">
<path transform="matrix(1,0,0,-1,0,952.157)" d="M0 952.157H841.89V0H0Z"/>
</clipPath>
</defs>
<g id="layer_1" data-name="">
<path transform="matrix(1,0,0,-1,0,952.157)" d="M.894 0H840.996V952.157H.894Z" fill="#ffffff"/>
<g clip-path="url(#clip_0)">
<path transform="matrix(1,0,0,-1,578.177,476.07859)" stroke-width="1" stroke-linecap="butt" stroke-miterlimit="10" stroke-linejoin="miter" fill="none" stroke="#000000" d="M0 0C0 86.837-70.395 157.232-157.232 157.232-244.069 157.232-314.464 86.837-314.464 0-314.464-86.837-244.069-157.232-157.232-157.232-70.395-157.232 0-86.837 0 0Z"/>
<path transform="matrix(1,0,0,-1,377.3388,558.24429)" d="M0 0C-.869-1.179-1.614-2.421-2.111-3.787-2.235-4.097-2.359-4.345-2.421-4.656V-4.78C-2.421-4.966-2.297-5.09-2.111-5.09H-1.987C-1.676-5.028-1.304-4.966-.993-4.842 .372-4.345 1.614-3.663 2.856-2.918 6.332-.931 9.56 1.366 12.974 3.415 16.699 5.587 20.548 7.574 24.459 9.312 25.018 9.56 25.515 9.747 26.073 9.933 26.259 9.995 26.446 10.057 26.57 10.057 26.756 10.057 26.942 9.995 27.066 9.809 27.066 9.56 26.88 9.498 26.756 9.436 23.093 8.07 19.803 6.084 16.451 4.222 13.161 2.297 9.995 .062 6.829-2.049 4.78-3.476 2.732-4.904 .497-6.084-.062-6.332-.559-6.58-1.18-6.767-1.49-6.829-1.738-6.891-2.049-6.891-3.352-6.891-4.283-5.96-4.346-4.408V-3.973C-4.346-3.29-4.221-2.669-4.097-2.049-3.414 .807-2.111 3.352-.683 5.836 1.924 10.554 5.153 14.775 8.691 18.81 11.981 22.659 15.52 26.26 19.183 29.736 19.865 30.419 20.61 30.978 21.355 31.598 21.542 31.785 21.79 31.909 21.976 32.033 22.535 32.343 22.907 32.468 23.218 32.468 23.714 32.468 23.901 32.033 23.963 31.102 24.025 30.419 24.087 29.736 24.521 29.115 24.583 28.991 24.645 28.867 24.645 28.743 24.645 28.494 24.521 28.246 24.459 28.06 24.211 27.439 23.776 26.942 23.342 26.446 22.659 25.701 21.976 24.894 21.293 24.149 18.003 20.673 14.651 17.32 11.423 13.844 7.387 9.436 3.477 4.904 0 0"/>
<path transform="matrix(1,0,0,-1,405.9579,559.01589)" d="M0 0C-1.552-1.055-3.104-2.049-4.656-3.104-4.904-3.29-5.277-3.539-5.587-3.663-5.96-3.849-6.27-3.973-6.643-3.973-7.512-3.973-8.319-3.228-8.443-2.111V-1.676C-8.443-.993-8.319-.31-8.132 .373-7.946 1.117-7.698 1.862-7.387 2.545-6.27 4.842-4.904 7.015-3.414 9.126-3.042 9.622-2.607 10.119-2.049 10.429-1.738 10.553-1.552 10.678-1.304 10.678-.931 10.678-.621 10.367-.435 9.87-.372 9.622-.31 9.312-.248 9.063-.248 8.443 0 7.946 .497 7.449 .807 7.139 .993 6.891 .993 6.642 .993 6.394 .869 6.208 .745 5.897 .372 5.215-.124 4.656-.621 4.097-1.987 2.607-3.166 .993-4.408-.621-4.532-.745-4.656-.931-4.78-1.117-4.718-1.117-4.594-1.18-4.532-1.18-4.284-1.18-4.097-1.055-3.973-.931-2.359-.124-.869 .869 .621 1.8 1.862 2.607 3.104 3.476 4.346 4.221 6.022 5.215 7.449 6.518 8.877 7.822 9.622 8.505 10.429 9.126 11.298 9.56 11.547 9.684 11.733 9.746 11.857 9.746 12.043 9.746 12.105 9.622 12.105 9.25V9.001C12.105 8.567 12.167 8.194 12.416 7.884 12.602 7.636 12.664 7.325 12.664 7.077 12.664 6.767 12.54 6.394 12.292 6.084 11.36 4.594 10.367 3.166 9.25 1.8 8.194 .559 7.201-.683 6.146-1.924 6.022-2.049 5.773-2.235 5.773-2.483 5.773-2.545 5.835-2.607 5.835-2.669 6.394-2.607 6.953-2.359 7.449-2.173 9.25-1.366 10.988-.559 12.788 .186 16.141 1.614 19.555 2.856 23.093 3.849 23.466 3.973 23.838 4.035 24.273 4.097 24.335 4.097 24.459 4.159 24.521 4.159 24.707 4.159 24.832 4.097 25.018 3.973 25.204 3.911 25.266 3.787 25.266 3.663 25.266 3.539 25.204 3.476 25.018 3.352 24.956 3.352 24.832 3.29 24.77 3.29 21.107 2.421 17.755 .931 14.402-.683 11.857-1.924 9.312-3.228 6.829-4.47 6.208-4.78 5.587-5.091 4.966-5.277 4.718-5.339 4.47-5.401 4.221-5.401 3.228-5.401 2.421-4.656 2.297-3.539 2.297-3.352 2.235-3.166 2.235-2.98 2.235-2.235 2.421-1.552 2.669-.869 3.042 .186 3.476 1.117 4.035 2.049 4.159 2.297 4.283 2.421 4.283 2.918 2.794 1.862 1.366 .931 0 0"/>
<path transform="matrix(1,0,0,-1,432.4096,561.49917)" d="M0 0C.31 0 .621 .248 .869 .31 2.731 .931 4.47 1.862 6.208 2.669 9.995 4.532 13.968 5.773 18.065 6.767 18.562 6.891 19.058 6.891 19.555 6.891 19.803 6.891 20.052 6.829 20.238 6.705 20.362 6.58 20.486 6.456 20.486 6.27 20.424 6.084 20.3 6.022 20.114 5.96 19.741 5.898 19.369 5.898 18.996 5.836 16.637 5.339 14.402 4.47 12.105 3.601 9.995 2.794 7.946 1.8 5.96 .745 4.532 0 3.104-.745 1.614-1.428 1.117-1.676 .497-1.924-.062-2.111-.372-2.235-.683-2.297-.931-2.297-2.359-2.297-3.352-1.055-3.415 .186V.807C-3.415 1.552-3.352 2.173-3.166 2.856-2.856 4.035-2.359 5.091-1.738 6.084-.186 8.815 1.862 11.112 4.346 13.037 5.09 13.657 5.96 14.154 6.891 14.402 7.139 14.464 7.449 14.526 7.636 14.526 8.567 14.526 9.126 13.968 9.312 12.912 9.374 12.664 9.374 12.416 9.374 12.168 9.374 11.485 9.684 10.926 10.181 10.429 10.491 10.181 10.615 9.933 10.615 9.684 10.615 9.436 10.429 9.25 10.057 9.002 9.808 8.877 9.498 8.753 9.25 8.629 5.525 7.077 2.607 4.594 .248 1.366-.062 .993-.372 .621-.372 .124-.248 .062-.124 0 0 0"/>
<path transform="matrix(1,0,0,-1,459.0881,560.1334)" d="M0 0C-1.428-.807-2.794-1.676-4.221-2.359-4.656-2.545-5.091-2.794-5.525-2.918-5.773-3.042-6.084-3.042-6.332-3.042-7.387-3.042-8.319-2.235-8.443-1.055V-.497C-8.443 .186-8.381 .869-8.132 1.552-7.45 3.787-6.146 5.649-4.656 7.387-2.856 9.498-.807 11.236 1.614 12.602 2.669 13.223 3.849 13.719 5.091 13.782H5.587C7.201 13.782 8.381 12.85 8.691 11.174 8.815 10.553 8.939 9.933 9.436 9.436 9.684 9.188 9.808 8.939 9.808 8.691 9.808 8.381 9.684 8.132 9.436 7.822 9.25 7.574 9.064 7.45 8.815 7.45 8.629 7.45 8.443 7.574 8.319 7.822 8.008 8.443 7.636 8.567 7.139 8.567 6.891 8.567 6.642 8.567 6.394 8.505 4.904 8.194 3.539 7.636 2.235 6.891-.435 5.339-2.732 3.352-4.594 .869-4.904 .435-5.339 .062-5.401-.497-5.277-.559-5.215-.559-5.091-.559-4.842-.559-4.656-.372-4.408-.31-.497 1.366 3.104 3.539 6.27 6.518 6.394 6.58 6.518 6.705 6.642 6.829 6.767 6.953 6.953 7.139 7.201 7.139 7.263 7.139 7.325 7.077 7.387 7.077 7.512 7.015 7.512 6.953 7.512 6.829 7.512 6.705 7.512 6.58 7.449 6.456V6.27C7.449 5.836 7.698 5.401 7.946 5.028 8.257 4.656 8.381 4.408 8.381 4.221 8.381 3.973 8.257 3.725 7.946 3.352 7.512 2.856 7.077 2.421 6.642 1.925 4.656-.062 3.104-2.297 1.925-4.842 1.862-4.966 1.862-5.09 1.738-5.153 1.614-5.401 1.428-5.525 1.242-5.525 1.055-5.525 .869-5.401 .683-5.215 .497-4.966 .435-4.656 .435-4.346 .435-3.787 .559-3.228 .807-2.732 1.304-1.366 1.987-.186 2.669 1.055 2.732 1.242 2.856 1.366 2.856 1.676 1.8 1.117 .931 .559 0 0"/>
<path transform="matrix(1,0,0,-1,460.5548,443.71098)" d="M0 0H11.858C15.744 0 19.103 1.417 21.942 4.256 24.775 7.089 26.195 10.451 26.195 14.336V28.672C26.195 32.558 24.775 35.896 21.942 38.687 19.103 41.478 15.744 42.874 11.858 42.874H0ZM-28.538-50.734V57.21H26.195C34.01 57.21 40.719 54.398 46.326 48.771 51.929 43.143 54.733 36.443 54.733 28.672V20.902C54.733 14.516 52.545 8.362 48.167 2.445 43.791-3.473 36.466-6.431 26.195-6.431H40.396C44.326-6.431 47.697-7.836 50.513-10.651 53.325-13.464 54.733-16.838 54.733-20.768V-88.851C54.733-104.612 41.956-117.389 26.195-117.389V-28.538C26.195-24.608 24.775-21.237 21.942-18.422 19.103-15.609 15.744-14.202 11.858-14.202H0V-79.272C-15.761-79.272-28.538-66.495-28.538-50.734"/>
<path transform="matrix(1,0,0,-1,381.335,400.83686)" d="M0 0H-11.858C-15.744 0-19.103-1.396-21.942-4.187-24.775-6.978-26.195-10.317-26.195-14.202V-28.538C-26.195-32.423-24.775-35.785-21.942-38.618-19.103-41.458-15.744-42.874-11.858-42.874H0ZM0-122.146V-122.146-57.076H-11.858C-15.744-57.076-19.103-58.483-21.942-61.296-24.775-64.111-26.195-67.482-26.195-71.412V-160.263C-41.956-160.263-54.733-147.486-54.733-131.725V-63.642C-54.733-59.712-53.325-56.338-50.513-53.525-47.697-50.71-44.326-49.306-40.396-49.306H-26.195C-36.466-49.306-43.791-46.347-48.167-40.429-52.545-34.512-54.733-28.359-54.733-21.972V-14.202C-54.733-6.431-51.929 .269-46.326 5.896-40.719 11.524-34.01 14.336-26.195 14.336H28.538V-93.608C28.538-109.369 15.761-122.146 0-122.146"/>
<path transform="matrix(1,0,0,-1,310.6991,586.3265)" d="M0 0C-1.115 1.053-2.215 2.121-3.315 3.221-64.228 64.134-64.228 162.896-3.315 223.809 57.598 284.722 156.36 284.722 217.273 223.809 218.373 222.709 219.441 221.609 220.494 220.494 159.361 278.17 63.034 277.118 3.205 217.289-56.624 157.46-57.676 61.133 0 0"/>
<path transform="matrix(1,0,0,-1,534.5079,589.6415)" d="M0 0C-60.913-60.913-159.675-60.913-220.604 .016-221.688 1.1-222.756 2.2-223.809 3.315-162.676-54.361-66.349-53.277-6.536 6.536 53.277 66.349 54.361 162.676-3.315 223.809-2.2 222.756-1.1 221.688-.016 220.603 60.913 159.675 60.913 60.913 0 0"/>
</g>
</g>
</svg>
